<?xml version="1.0" encoding="UTF-8"?>
<svg id="Layer_1" data-name="Layer 1" xmlns="http://www.w3.org/2000/svg" viewBox="0 0 172.3 171.98">
  <defs>
    <style>
      .cls-1 {
        fill: #709fa1;
        stroke-width: 0px;
      }
    </style>
  </defs>
  <path class="cls-1" d="m86.58.04c46.31-1.07,85.78,39.17,85.72,85.74-.06,46.32-38.37,86.55-86.57,86.2C37.94,171.63-.23,132.55,0,84.92.23,39.03,39.52-1.41,86.58.04Zm-.31,164.44c42.31.73,78.98-34.01,78.88-79.09-.1-43.57-35.22-78.42-79.13-78.44-43.07-.02-78.73,33.99-78.89,78.75-.15,44.48,35.89,79.47,79.14,78.78Z"/>
  <path class="cls-1" d="m128.75,51.33c-2.53,1.18-4.89.35-7.31-.03-8.82-1.39-16.91-.3-23.33,6.85-3.07,3.42-4.43,7.46-5.08,11.73-1.59,10.41-1.66,20.87-.56,31.37.54,5.13.4,10.32.61,15.49.08,1.98-.58,3.56-2.06,4.87-4.81,4.24-15.54,2.87-20-3.02,5.14-1.94,10.66,1.86,15.59-1.47,1.23-3.03.49-6.37.25-9.62-.83-11.28-2.14-22.54-.62-33.85.98-7.34,2.79-14.28,7.86-20.14,7.96-9.19,22.09-10.93,33.46-4.83.78.42,1.24,1.08,1.2,2.65Z"/>
  <path class="cls-1" d="m122.59,94.57c-2.89-1.99-.15-5.7-2.9-7.23-2.22-.34-1.99,2.89-4.14,2.44-2.3-.37-.95-2.9-2.22-3.94-1.51-1.56-3.14.9-5.03-.39-.49-2.89-2.72-5.07-4.82-6.78-.33-2.36.75-3.28,2.15-3.94,1.19-.11,1.85.7,2.63,1.31,6.7,5.23,13.99,7.4,22.38,4.6,2.11-.7,3.81-2.02,5.73-2.99,1.59-.8,3.05-2.22,5.21-.82.99,1.66.41,3.71.85,5.44-1.08,1.53-2.66.54-3.8,1.14-1.17.82-.58,2.68-1.74,3.14-1.63.92-2.77-.59-3.82-.36-1.79.9-.44,3.19-2.36,3.88-2.16.92-2.52-2.39-4.63-2.14-2.69,1.29.65,5.96-3.51,6.63Z"/>
  <path class="cls-1" d="m53.47,94.68c-2.25-2.3-.6-5.26-2-7.2-2.53-.64-2.77,2.59-4.81,2.32-2.06-.62-1.17-3-3.02-4.53-.9-.8-2.28,1.25-4.09.39-.14-3.6-4.54-5.1-5.09-8.78,1.64-2.51,3.33-1.97,5.16-.58,9.32,7.1,18.85,7.51,28.63.9,1.53-1.03,1.62-.9,4.69-.3,1.17,1.98.73,4.06.42,5.75-1.31,1.92-2.79.12-4.06.99-.74.75-.15,2.24-1.25,2.98-1.52,1.06-2.82-.68-4.16-.37-1.59.86-.39,3.13-1.99,3.69-2.42.61-2.4-2.18-4.29-2.6-3.44,1.09.2,6.54-4.15,7.33Z"/>
  <path class="cls-1" d="m45.63,120.68c3.85-1.26,3.98,1.75,4.84,3.7,4.55,10.37,11.89,15.28,22.41,15,4.89-.13,9-2.08,12.72-5.06,1.42-1.14,2.66-2.53,4.51-3.03,1.59-.06,2.49.69,2.74,2.24-4.66,9.44-18.13,13.08-30.29,9.4-9.91-2.99-17.91-13.36-16.92-22.25Z"/>
</svg>